<svg xmlns="http://www.w3.org/2000/svg" xmlns:xlink="http://www.w3.org/1999/xlink" width="2000" zoomAndPan="magnify" viewBox="0 0 1500 1499.999933" height="2000" preserveAspectRatio="xMidYMid meet" version="1.0"><defs><clipPath id="52a4360385"><path d="M 33.550781 33.550781 L 1466.449219 33.550781 L 1466.449219 1466.449219 L 33.550781 1466.449219 Z M 33.550781 33.550781 " clip-rule="nonzero"/></clipPath><clipPath id="e3ada00a50"><path d="M 750 33.550781 C 354.316406 33.550781 33.550781 354.316406 33.550781 750 C 33.550781 1145.683594 354.316406 1466.449219 750 1466.449219 C 1145.683594 1466.449219 1466.449219 1145.683594 1466.449219 750 C 1466.449219 354.316406 1145.683594 33.550781 750 33.550781 Z M 750 33.550781 " clip-rule="nonzero"/></clipPath><clipPath id="688cb9c7a9"><path d="M 0.550781 0.550781 L 1433.449219 0.550781 L 1433.449219 1433.449219 L 0.550781 1433.449219 Z M 0.550781 0.550781 " clip-rule="nonzero"/></clipPath><clipPath id="cc9aedc24b"><path d="M 717 0.550781 C 321.316406 0.550781 0.550781 321.316406 0.550781 717 C 0.550781 1112.683594 321.316406 1433.449219 717 1433.449219 C 1112.683594 1433.449219 1433.449219 1112.683594 1433.449219 717 C 1433.449219 321.316406 1112.683594 0.550781 717 0.550781 Z M 717 0.550781 " clip-rule="nonzero"/></clipPath><clipPath id="e26ca735d2"><rect x="0" width="1434" y="0" height="1434"/></clipPath><clipPath id="64db6ebb5d"><path d="M 372.042969 224.488281 L 1107.792969 224.488281 L 1107.792969 1275.238281 L 372.042969 1275.238281 Z M 372.042969 224.488281 " clip-rule="nonzero"/></clipPath><clipPath id="a356aa0ffc"><path d="M 478.152344 319.441406 L 1001.644531 319.441406 L 1001.644531 842.933594 L 478.152344 842.933594 Z M 478.152344 319.441406 " clip-rule="nonzero"/></clipPath><clipPath id="4609c73679"><path d="M 739.898438 319.441406 C 595.339844 319.441406 478.152344 436.628906 478.152344 581.1875 C 478.152344 725.746094 595.339844 842.933594 739.898438 842.933594 C 884.457031 842.933594 1001.644531 725.746094 1001.644531 581.1875 C 1001.644531 436.628906 884.457031 319.441406 739.898438 319.441406 Z M 739.898438 319.441406 " clip-rule="nonzero"/></clipPath><clipPath id="cda7d454a6"><path d="M 0.152344 0.441406 L 523.644531 0.441406 L 523.644531 523.933594 L 0.152344 523.933594 Z M 0.152344 0.441406 " clip-rule="nonzero"/></clipPath><clipPath id="e994f9d49d"><path d="M 261.898438 0.441406 C 117.339844 0.441406 0.152344 117.628906 0.152344 262.1875 C 0.152344 406.746094 117.339844 523.933594 261.898438 523.933594 C 406.457031 523.933594 523.644531 406.746094 523.644531 262.1875 C 523.644531 117.628906 406.457031 0.441406 261.898438 0.441406 Z M 261.898438 0.441406 " clip-rule="nonzero"/></clipPath><clipPath id="ac243fa3e6"><rect x="0" width="524" y="0" height="524"/></clipPath><clipPath id="4e8985f59a"><path d="M 513.144531 346.765625 L 987 346.765625 L 987 820.765625 L 513.144531 820.765625 Z M 513.144531 346.765625 " clip-rule="nonzero"/></clipPath></defs><g clip-path="url(#52a4360385)"><g clip-path="url(#e3ada00a50)"><g transform="matrix(1, 0, 0, 1, 33, 33)"><g clip-path="url(#e26ca735d2)"><g clip-path="url(#688cb9c7a9)"><g clip-path="url(#cc9aedc24b)"><path fill="#0d3b2e" d="M 0.550781 0.550781 L 1433.449219 0.550781 L 1433.449219 1433.449219 L 0.550781 1433.449219 Z M 0.550781 0.550781 " fill-opacity="1" fill-rule="nonzero"/></g></g></g></g></g></g><g clip-path="url(#64db6ebb5d)"><path fill="#6ee7b7" d="M 739.894531 224.496094 C 536.789062 224.496094 372.042969 389.242188 372.042969 592.347656 C 372.042969 868.238281 739.894531 1275.5 739.894531 1275.5 C 739.894531 1275.5 1107.746094 868.238281 1107.746094 592.347656 C 1107.746094 389.242188 943 224.496094 739.894531 224.496094 Z M 739.894531 723.722656 C 667.375 723.722656 608.519531 664.867188 608.519531 592.347656 C 608.519531 519.828125 667.375 460.972656 739.894531 460.972656 C 812.414062 460.972656 871.269531 519.828125 871.269531 592.347656 C 871.269531 664.867188 812.414062 723.722656 739.894531 723.722656 Z M 739.894531 723.722656 " fill-opacity="1" fill-rule="nonzero"/></g><g clip-path="url(#a356aa0ffc)"><g clip-path="url(#4609c73679)"><g transform="matrix(1, 0, 0, 1, 478, 319)"><g clip-path="url(#ac243fa3e6)"><g clip-path="url(#cda7d454a6)"><g clip-path="url(#e994f9d49d)"><path fill="#0d3b2e" d="M 0.152344 0.441406 L 523.644531 0.441406 L 523.644531 523.933594 L 0.152344 523.933594 Z M 0.152344 0.441406 " fill-opacity="1" fill-rule="nonzero"/></g></g></g></g></g></g><g clip-path="url(#4e8985f59a)"><path fill="#0d3b2e" d="M 986.851562 583.621094 C 986.851562 587.496094 986.757812 591.371094 986.566406 595.242188 C 986.378906 599.113281 986.09375 602.980469 985.710938 606.835938 C 985.332031 610.695312 984.859375 614.539062 984.289062 618.375 C 983.71875 622.207031 983.058594 626.027344 982.300781 629.828125 C 981.546875 633.628906 980.695312 637.410156 979.753906 641.171875 C 978.8125 644.929688 977.78125 648.667969 976.652344 652.375 C 975.527344 656.085938 974.3125 659.765625 973.007812 663.414062 C 971.703125 667.0625 970.308594 670.679688 968.824219 674.261719 C 967.339844 677.839844 965.769531 681.382812 964.113281 684.886719 C 962.457031 688.394531 960.710938 691.855469 958.886719 695.273438 C 957.058594 698.691406 955.148438 702.0625 953.15625 705.386719 C 951.164062 708.710938 949.089844 711.988281 946.9375 715.210938 C 944.78125 718.433594 942.550781 721.601562 940.242188 724.714844 C 937.933594 727.828125 935.546875 730.882812 933.089844 733.878906 C 930.628906 736.875 928.097656 739.808594 925.496094 742.683594 C 922.894531 745.554688 920.222656 748.359375 917.480469 751.101562 C 914.738281 753.84375 911.933594 756.515625 909.0625 759.117188 C 906.1875 761.71875 903.253906 764.25 900.257812 766.710938 C 897.261719 769.171875 894.207031 771.554688 891.09375 773.863281 C 887.980469 776.171875 884.8125 778.402344 881.589844 780.558594 C 878.363281 782.710938 875.089844 784.785156 871.765625 786.777344 C 868.441406 788.769531 865.070312 790.679688 861.652344 792.507812 C 858.234375 794.335938 854.769531 796.078125 851.265625 797.734375 C 847.761719 799.390625 844.21875 800.960938 840.640625 802.445312 C 837.058594 803.929688 833.441406 805.324219 829.792969 806.628906 C 826.144531 807.933594 822.464844 809.148438 818.753906 810.273438 C 815.046875 811.402344 811.308594 812.433594 807.550781 813.375 C 803.789062 814.316406 800.007812 815.167969 796.207031 815.921875 C 792.40625 816.679688 788.585938 817.34375 784.753906 817.910156 C 780.917969 818.480469 777.074219 818.953125 773.214844 819.332031 C 769.359375 819.714844 765.492188 820 761.621094 820.1875 C 757.75 820.378906 753.875 820.472656 750 820.472656 C 746.125 820.472656 742.25 820.378906 738.378906 820.1875 C 734.507812 820 730.640625 819.714844 726.785156 819.332031 C 722.925781 818.953125 719.082031 818.480469 715.246094 817.910156 C 711.410156 817.34375 707.59375 816.679688 703.792969 815.921875 C 699.988281 815.167969 696.207031 814.316406 692.449219 813.375 C 688.6875 812.433594 684.953125 811.402344 681.246094 810.273438 C 677.535156 809.148438 673.855469 807.933594 670.207031 806.628906 C 666.554688 805.324219 662.941406 803.929688 659.359375 802.445312 C 655.777344 800.960938 652.234375 799.390625 648.730469 797.734375 C 645.226562 796.078125 641.765625 794.335938 638.347656 792.507812 C 634.929688 790.679688 631.558594 788.769531 628.230469 786.777344 C 624.90625 784.785156 621.632812 782.710938 618.410156 780.558594 C 615.1875 778.402344 612.019531 776.171875 608.90625 773.863281 C 605.792969 771.554688 602.738281 769.171875 599.742188 766.710938 C 596.746094 764.25 593.808594 761.71875 590.9375 759.117188 C 588.066406 756.515625 585.257812 753.84375 582.519531 751.101562 C 579.777344 748.359375 577.105469 745.554688 574.503906 742.683594 C 571.898438 739.808594 569.367188 736.875 566.910156 733.878906 C 564.449219 730.882812 562.066406 727.828125 559.757812 724.714844 C 557.449219 721.601562 555.214844 718.433594 553.0625 715.210938 C 550.910156 711.988281 548.835938 708.710938 546.84375 705.386719 C 544.851562 702.0625 542.941406 698.691406 541.113281 695.273438 C 539.285156 691.855469 537.542969 688.394531 535.886719 684.886719 C 534.230469 681.382812 532.660156 677.839844 531.175781 674.261719 C 529.691406 670.679688 528.296875 667.0625 526.992188 663.414062 C 525.6875 659.765625 524.46875 656.085938 523.34375 652.375 C 522.21875 648.667969 521.1875 644.929688 520.246094 641.171875 C 519.300781 637.410156 518.453125 633.628906 517.695312 629.828125 C 516.941406 626.027344 516.277344 622.207031 515.710938 618.375 C 515.140625 614.539062 514.667969 610.695312 514.285156 606.835938 C 513.90625 602.980469 513.621094 599.113281 513.429688 595.242188 C 513.242188 591.371094 513.144531 587.496094 513.144531 583.621094 C 513.144531 579.746094 513.242188 575.871094 513.429688 572 C 513.621094 568.128906 513.90625 564.261719 514.285156 560.40625 C 514.667969 556.546875 515.140625 552.703125 515.710938 548.867188 C 516.277344 545.03125 516.941406 541.214844 517.695312 537.414062 C 518.453125 533.609375 519.300781 529.832031 520.246094 526.070312 C 521.1875 522.308594 522.21875 518.574219 523.34375 514.867188 C 524.46875 511.15625 525.6875 507.476562 526.992188 503.828125 C 528.296875 500.175781 529.691406 496.5625 531.175781 492.980469 C 532.660156 489.398438 534.230469 485.855469 535.886719 482.351562 C 537.542969 478.847656 539.285156 475.386719 541.113281 471.96875 C 542.941406 468.550781 544.851562 465.179688 546.84375 461.855469 C 548.835938 458.527344 550.910156 455.253906 553.0625 452.03125 C 555.214844 448.808594 557.449219 445.640625 559.757812 442.527344 C 562.066406 439.414062 564.449219 436.359375 566.910156 433.363281 C 569.367188 430.367188 571.898438 427.433594 574.503906 424.558594 C 577.105469 421.6875 579.777344 418.882812 582.519531 416.140625 C 585.257812 413.398438 588.066406 410.726562 590.9375 408.125 C 593.808594 405.519531 596.746094 402.988281 599.742188 400.53125 C 602.738281 398.070312 605.792969 395.6875 608.90625 393.378906 C 612.019531 391.070312 615.1875 388.835938 618.410156 386.683594 C 621.632812 384.53125 624.90625 382.457031 628.230469 380.464844 C 631.558594 378.472656 634.929688 376.5625 638.347656 374.734375 C 641.765625 372.90625 645.226562 371.164062 648.730469 369.507812 C 652.234375 367.851562 655.777344 366.28125 659.359375 364.796875 C 662.941406 363.3125 666.554688 361.917969 670.207031 360.613281 C 673.855469 359.308594 677.535156 358.089844 681.246094 356.964844 C 684.953125 355.839844 688.6875 354.808594 692.449219 353.867188 C 696.207031 352.921875 699.988281 352.074219 703.792969 351.316406 C 707.59375 350.5625 711.410156 349.898438 715.246094 349.332031 C 719.082031 348.761719 722.925781 348.289062 726.785156 347.90625 C 730.640625 347.527344 734.507812 347.242188 738.378906 347.050781 C 742.25 346.863281 746.125 346.765625 750 346.765625 C 753.875 346.765625 757.75 346.863281 761.621094 347.050781 C 765.492188 347.242188 769.359375 347.527344 773.214844 347.90625 C 777.074219 348.289062 780.917969 348.761719 784.753906 349.332031 C 788.585938 349.898438 792.40625 350.5625 796.207031 351.316406 C 800.007812 352.074219 803.789062 352.921875 807.550781 353.867188 C 811.308594 354.808594 815.046875 355.839844 818.753906 356.964844 C 822.464844 358.089844 826.144531 359.308594 829.792969 360.613281 C 833.441406 361.917969 837.058594 363.3125 840.640625 364.796875 C 844.21875 366.28125 847.761719 367.851562 851.265625 369.507812 C 854.769531 371.164062 858.234375 372.90625 861.652344 374.734375 C 865.070312 376.5625 868.441406 378.472656 871.765625 380.464844 C 875.089844 382.457031 878.363281 384.53125 881.589844 386.683594 C 884.8125 388.835938 887.980469 391.070312 891.09375 393.378906 C 894.207031 395.6875 897.261719 398.070312 900.257812 400.53125 C 903.253906 402.988281 906.1875 405.519531 909.058594 408.125 C 911.933594 410.726562 914.738281 413.398438 917.480469 416.140625 C 920.222656 418.882812 922.894531 421.6875 925.496094 424.558594 C 928.097656 427.433594 930.628906 430.367188 933.089844 433.363281 C 935.546875 436.359375 937.933594 439.414062 940.242188 442.527344 C 942.550781 445.640625 944.78125 448.808594 946.9375 452.03125 C 949.089844 455.253906 951.164062 458.527344 953.15625 461.855469 C 955.148438 465.179688 957.058594 468.550781 958.886719 471.96875 C 960.710938 475.386719 962.457031 478.847656 964.113281 482.351562 C 965.769531 485.855469 967.339844 489.398438 968.824219 492.980469 C 970.308594 496.5625 971.703125 500.175781 973.007812 503.828125 C 974.3125 507.476562 975.527344 511.15625 976.652344 514.867188 C 977.78125 518.574219 978.8125 522.308594 979.753906 526.070312 C 980.695312 529.832031 981.546875 533.609375 982.300781 537.414062 C 983.058594 541.214844 983.71875 545.03125 984.289062 548.867188 C 984.859375 552.703125 985.332031 556.546875 985.710938 560.40625 C 986.09375 564.261719 986.378906 568.128906 986.566406 572 C 986.757812 575.871094 986.851562 579.746094 986.851562 583.621094 Z M 986.851562 583.621094 " fill-opacity="1" fill-rule="nonzero"/></g><path fill="#6ee7b7" d="M 917.085938 466.585938 C 904.804688 454.304688 884.785156 454.304688 872.503906 466.585938 L 705.105469 633.984375 L 627.496094 556.375 C 615.214844 544.09375 595.191406 544.09375 582.910156 556.375 C 570.628906 568.65625 570.628906 588.675781 582.910156 600.957031 L 681.679688 699.726562 C 681.988281 700.136719 682.402344 700.449219 682.8125 700.859375 C 689.003906 707.054688 697.054688 710.148438 705.105469 710.046875 C 713.15625 710.046875 721.308594 706.949219 727.398438 700.859375 C 727.8125 700.449219 728.121094 700.136719 728.53125 699.726562 L 917.085938 511.171875 C 929.367188 498.890625 929.367188 478.867188 917.085938 466.585938 Z M 917.085938 466.585938 " fill-opacity="1" fill-rule="nonzero"/></svg>